<svg width="111" height="60" viewBox="0 0 111 60" fill="none" xmlns="http://www.w3.org/2000/svg">
<g clip-path="url(#clip0_104_2)">
<path d="M55.1759 60C48.602 59.7543 41.1633 59.5265 33.7296 59.1809C28.0565 58.9173 22.3885 58.5154 16.718 58.1443C12.8771 57.8934 9.03869 57.594 5.19776 57.2996C2.64908 57.1051 0.568683 54.8475 0.566124 52.2828C0.561006 47.8802 0.558448 43.4802 0.566124 39.0777C0.571242 36.4797 2.67467 34.2528 5.27708 34.0634C11.6053 33.6001 17.9309 33.0907 24.2642 32.6812C29.6482 32.3331 35.0398 32.0951 40.4314 31.8237C40.695 31.8109 41.0021 31.8877 41.2273 32.0259C46.7059 35.3842 52.6502 36.536 58.9963 35.8065C62.8757 35.3611 66.4837 34.13 69.818 32.0848C70.0969 31.9133 70.4807 31.8161 70.8083 31.8314C76.1027 32.0925 81.3996 32.3305 86.6889 32.6684C92.3108 33.0268 97.9251 33.4798 103.542 33.897C104.558 33.9738 105.594 33.9917 106.584 34.2067C108.974 34.7263 110.558 36.7638 110.561 39.1903C110.566 43.5442 110.566 47.8981 110.561 52.252C110.556 54.8885 108.442 57.123 105.819 57.315C99.6089 57.7706 93.4035 58.2799 87.1905 58.692C82.4232 59.0094 77.6508 59.2603 72.8759 59.4497C67.2693 59.6724 61.6576 59.8004 55.1785 59.9949L55.1759 60ZM79.2066 42.5332C79.2066 42.052 79.1887 41.7525 79.2118 41.4581C79.2604 40.8157 78.9917 40.5572 78.3392 40.5776C77.2235 40.6135 76.1027 40.6109 74.987 40.5776C74.3652 40.5597 74.1451 40.8003 74.1477 41.4121C74.1656 44.6474 74.1681 47.8828 74.1451 51.1181C74.14 51.822 74.4445 52.0396 75.0919 52.0242C76.2332 51.9986 77.3745 52.014 78.5157 52.0038C79.3295 51.9961 79.4753 51.8527 79.4804 51.0439C79.4881 49.3776 79.4805 47.7138 79.483 46.0475C79.4881 44.6653 80.0255 44.0126 81.4175 43.9205C82.5972 43.8411 83.7922 43.8591 84.9719 43.9461C86.108 44.028 86.4586 44.481 86.4637 45.6124C86.4714 47.4451 86.474 49.2752 86.4637 51.1079C86.4612 51.7299 86.7145 52.0217 87.3593 52.0114C88.5237 51.9935 89.6905 52.0217 90.8548 52.0166C91.666 52.0114 91.8042 51.8707 91.8067 51.049C91.8144 49.4083 91.8067 47.7676 91.8119 46.1243C91.817 44.5911 92.2904 44.028 93.7976 43.9231C94.8365 43.8514 95.8856 43.8514 96.9246 43.9179C98.3985 44.0101 98.8437 44.5246 98.8514 45.9963C98.8617 47.7087 98.8719 49.4211 98.8463 51.1335C98.8361 51.7862 99.1099 52.0319 99.7368 52.0242C100.901 52.0063 102.068 52.0038 103.232 52.0242C103.885 52.037 104.192 51.7862 104.184 51.1028C104.161 49.1524 104.197 47.2019 104.164 45.2515C104.123 42.8352 102.935 41.3097 100.594 40.7363C98.4215 40.2039 96.2055 40.2935 94.0048 40.5418C92.7382 40.6851 91.8119 41.389 91.2412 42.5434C91.1875 42.6535 91.0877 42.7431 90.9828 42.8762C90.1306 41.5093 88.9228 40.657 87.4182 40.5469C85.6065 40.4164 83.7692 40.4829 81.9524 40.6058C80.8034 40.6826 79.8361 41.2636 79.2118 42.5332H79.2066ZM36.5317 40.291C36.5317 40.3217 36.5291 40.3549 36.5265 40.3857C35.4569 40.3857 34.3873 40.3575 33.3177 40.3933C32.3248 40.4292 31.314 40.4445 30.3416 40.6263C27.9951 41.0665 26.795 42.5921 26.7873 44.9904C26.7847 45.8709 26.7847 46.7489 26.7873 47.6294C26.7975 49.9254 27.9491 51.3843 30.1881 51.9065C30.7178 52.0294 31.2654 52.1548 31.8028 52.1522C35.2215 52.142 38.6479 52.2034 42.0615 52.0268C44.8302 51.8835 46.2325 50.1864 46.2376 47.4323C46.2376 46.6234 46.2402 45.8146 46.2376 45.0083C46.2274 42.5306 45.04 40.9718 42.5656 40.6314C40.5773 40.3575 38.543 40.3933 36.5291 40.291H36.5317ZM16.2241 40.291C16.2241 40.3498 16.2216 40.4087 16.219 40.4676C14.5787 40.4676 12.941 40.4624 11.3008 40.4727C11.0423 40.4727 10.7864 40.552 10.5305 40.6058C8.47061 41.0358 7.21162 42.2235 7.01714 44.1893C6.87896 45.5766 6.89688 46.9997 7.01714 48.3896C7.16812 50.1224 8.20448 51.2717 9.87033 51.7504C10.7071 51.9884 11.5925 52.1445 12.46 52.165C14.9063 52.2188 17.3577 52.2085 19.8066 52.1753C21.1423 52.1573 22.4602 51.973 23.6757 51.3587C25.0165 50.6804 25.6716 49.5824 25.6639 48.085C25.6639 47.6217 25.4951 47.3043 24.9577 47.3069C23.6731 47.3145 22.3885 47.2915 21.1065 47.3273C20.9018 47.3325 20.5819 47.5296 20.5231 47.7062C20.2749 48.4331 19.7273 48.7377 19.0568 48.7479C17.2579 48.7761 15.4539 48.794 13.6575 48.6967C12.6903 48.643 12.3167 48.0952 12.2808 47.1098C12.2629 46.6107 12.268 46.1115 12.2783 45.6124C12.2987 44.4299 12.6672 43.8975 13.852 43.8258C15.5793 43.7234 17.3142 43.7592 19.0466 43.8028C19.6786 43.8181 20.2109 44.1176 20.4745 44.8036C20.5538 45.0083 20.93 45.2131 21.1782 45.2208C22.4141 45.2643 23.6501 45.2285 24.886 45.2464C25.4388 45.2541 25.6563 44.9904 25.6716 44.4734C25.7074 43.0707 25.2033 41.9419 23.9188 41.302C23.2918 40.9872 22.5984 40.6954 21.9126 40.6288C20.0241 40.4496 18.1254 40.3959 16.2292 40.2935L16.2241 40.291ZM55.9308 52.0166C56.8341 52.0166 57.7399 52.0498 58.6381 51.9961C58.9247 51.9782 59.3188 51.8067 59.4544 51.5789C61.4376 48.2821 63.39 44.9674 65.3348 41.6476C65.7135 41 65.4602 40.593 64.713 40.5879C63.4284 40.5776 62.1464 40.6083 60.8618 40.5725C60.3372 40.5597 60.0481 40.7491 59.8075 41.2099C58.7123 43.3164 57.5941 45.4102 56.463 47.4988C56.3428 47.719 56.0843 47.8649 55.8898 48.044C55.7209 47.8623 55.506 47.7062 55.3934 47.4963C54.2675 45.4076 53.1467 43.3113 52.0515 41.2073C51.8135 40.7517 51.5243 40.5469 50.9946 40.5623C49.7587 40.5981 48.5227 40.57 47.2868 40.5828C46.3323 40.593 46.1173 40.9539 46.5959 41.7679C48.4971 45.0032 50.3958 48.2411 52.3355 51.4509C52.5044 51.7299 52.9548 51.9603 53.2925 51.9884C54.1651 52.0626 55.0505 52.014 55.9282 52.014L55.9308 52.0166ZM71.9265 46.3675C71.9265 44.7268 71.9163 43.0835 71.9317 41.4428C71.9368 40.8592 71.7525 40.5597 71.1102 40.5751C69.8743 40.6058 68.6383 40.6007 67.3998 40.5751C66.8113 40.5623 66.5938 40.808 66.5963 41.3814C66.6066 44.6397 66.6091 47.8981 66.5963 51.1591C66.5938 51.7708 66.8497 52.0242 67.4484 52.0191C68.6383 52.0063 69.8257 52.0012 71.0156 52.0217C71.6911 52.0345 71.947 51.7452 71.9342 51.0772C71.9086 49.5081 71.9265 47.9365 71.9265 46.3675ZM69.7182 39.3746C70.1455 39.1929 71.0284 38.9548 71.7525 38.4762C72.62 37.9003 72.5944 36.8585 71.8549 36.1367C70.6215 34.9311 67.8272 34.9311 66.5912 36.1367C65.8491 36.8611 65.8491 37.739 66.6142 38.4429C67.3563 39.1263 68.2826 39.3055 69.7182 39.3746Z" fill="#E63A11"/>
<path d="M55.5803 0.0025458C63.0932 -0.138233 71.1308 5.4315 72.5638 14.6308C73.2163 18.8183 72.3795 22.7499 70.1789 26.3973C69.7669 27.0807 69.3114 27.2266 68.5642 27.1703C65.7468 26.9553 62.9244 26.6994 60.0993 26.6584C54.7486 26.5791 49.5771 27.6771 44.536 29.4074C43.8451 29.6455 43.4229 29.5585 42.9444 29.0081C38.5789 23.999 37.1868 18.2731 39.2339 11.9585C41.2939 5.61067 45.795 1.76356 52.333 0.37369C53.3924 0.148444 54.4953 0.122848 55.5777 0.0025458H55.5803ZM51.0024 15.222C50.6927 15.158 50.4241 15.0301 50.1733 15.0582C48.9527 15.2016 47.7142 15.286 46.5268 15.5778C44.2468 16.1409 44.234 16.228 44.3492 18.5854C44.5386 22.499 46.8621 25.1406 50.6672 25.8086C52.6119 26.1516 54.5516 26.0851 56.481 25.7779C59.9893 25.2225 63.1751 23.9401 65.6112 21.2551C66.2919 20.5051 66.8446 19.5555 67.1901 18.5982C67.6814 17.2288 66.9137 16.187 65.4602 16.0488C63.3517 15.8466 61.2943 16.1896 59.2805 16.786C58.9785 16.8755 58.7252 17.1315 58.4488 17.3107C58.4667 17.3977 58.4846 17.4873 58.5025 17.5743C58.8557 17.646 59.2063 17.7765 59.5594 17.774C60.5574 17.7637 61.5528 17.6997 62.5508 17.6537C63.1239 17.6281 63.4438 17.8943 63.3184 18.4651C63.1982 19.0103 63.0728 19.6092 62.7631 20.052C60.8568 22.7934 58.2748 24.4827 54.8894 24.6568C52.0848 24.8027 50.0786 23.3795 49.4491 20.8225C48.9629 18.8362 48.7352 16.8244 50.8872 15.5062C50.9179 15.4857 50.923 15.4217 51.0024 15.2169V15.222ZM56.9826 18.163C56.046 16.3175 55.9564 14.4439 56.5501 12.5319C56.8162 11.6718 57.3741 10.991 58.1648 10.5149C60.1403 9.32979 60.2247 9.038 59.0732 7.05429C58.3004 5.72073 57.6991 4.33854 57.7118 2.76437C57.717 2.11679 57.7886 1.46921 57.8296 0.819064C57.6274 0.865137 57.543 0.941926 57.5097 1.03663C56.9928 2.49561 56.2456 3.78822 54.9892 4.75832C54.5465 5.1013 54.6411 5.46221 55.1939 5.74633C55.721 6.01765 56.2942 6.19938 56.8085 6.48862C57.4739 6.86232 57.612 7.33841 57.1975 7.9732C56.8904 8.44417 56.4836 8.85882 56.0793 9.25556C55.4191 9.90315 54.6693 10.4688 54.0577 11.1574C53.1647 12.1658 52.8346 13.3765 53.3515 14.6692C54.0296 16.3713 55.437 17.3542 56.98 18.1605L56.9826 18.163Z" fill="#E63A11"/>
<path d="M44.3081 30.247C52.5299 28.6242 60.7619 27.9843 69.104 27.7386C63.8403 35.1845 52.0053 37.0505 44.3081 30.247Z" fill="#E63A11"/>
<path d="M36.2271 43.5928C37.3352 43.6901 38.5481 43.7413 39.7405 43.923C40.6003 44.0536 40.8869 44.4989 40.91 45.3692C40.9253 45.94 40.9228 46.5108 40.9125 47.0816C40.8972 48.085 40.5466 48.6481 39.5793 48.6916C37.545 48.7812 35.5004 48.7812 33.4661 48.6916C32.5039 48.6506 32.138 48.0773 32.115 47.0893C32.1022 46.5185 32.0971 45.9477 32.1175 45.3769C32.1508 44.5015 32.44 44.0792 33.2921 43.923C34.221 43.7515 35.1754 43.7055 36.2271 43.5928Z" fill="#E63A11"/>
</g>
<defs>
<clipPath id="clip0_104_2">
<rect width="110" height="60" fill="white" transform="translate(0.561035)"/>
</clipPath>
</defs>
</svg>
